<svg xmlns="http://www.w3.org/2000/svg" width="105" height="80" viewBox="0 0 105 80"><path fill="transparent" d="M0 0h64.902L105 41.12 65.657 80H0V0z"/><linearGradient id="a" gradientUnits="userSpaceOnUse" x1="872.792" y1="-418.978" x2="923.704" y2="-368.066" gradientTransform="rotate(45 -46.196 -1193.437)"><stop offset="0" stop-color="#66b9e2"/><stop offset=".134" stop-color="#60b7e1"/><stop offset=".31" stop-color="#50b0de"/><stop offset=".509" stop-color="#35a4d9"/><stop offset=".723" stop-color="#0f95d2"/><stop offset=".8" stop-color="#008ecf"/></linearGradient><path fill="url(#a)" d="M56 76L20 40 56 4l36 36z"/><circle fill="#FFFFFE" cx="56" cy="40" r="22.072"/><linearGradient id="b" gradientUnits="userSpaceOnUse" x1="648" y1="590.865" x2="648" y2="549.782" gradientTransform="translate(-592 -531)"><stop offset="0" stop-color="#76bfe4"/><stop offset=".123" stop-color="#70bde3"/><stop offset=".283" stop-color="#60b6e0"/><stop offset=".464" stop-color="#45abdb"/><stop offset=".66" stop-color="#1f9bd5"/><stop offset=".8" stop-color="#008ecf"/></linearGradient><circle fill="url(#b)" cx="56" cy="40" r="19.865"/><g fill="#FFFFFE"><path d="M44.434 43.867c-.203.17-.387.322-.547.457-.162.14-.38.275-.65.41-.265.13-.524.23-.776.293-.25.062-.603.1-1.056.1-.844 0-1.545-.283-2.102-.852-.56-.566-.836-1.28-.836-2.146 0-.714.14-1.282.424-1.722.283-.438.69-.783 1.223-1.04.54-.26 1.18-.44 1.928-.544.75-.102 1.552-.182 2.413-.238v-.05c0-.528-.195-.892-.582-1.093-.39-.203-.968-.303-1.745-.303-.35 0-.76.064-1.23.193a9.71 9.71 0 0 0-1.375.492h-.254V35.51c.295-.086.77-.186 1.432-.303a11.357 11.357 0 0 1 1.992-.176c1.648 0 2.85.276 3.602.825.752.547 1.13 1.385 1.13 2.51v6.514h-2.985v-1.013h-.003zm0-1.49v-1.982c-.502.05-.906.096-1.215.13a3.96 3.96 0 0 0-.913.218c-.26.09-.46.228-.605.41-.143.184-.215.43-.215.73 0 .447.12.752.36.92.237.167.59.248 1.06.248.258 0 .52-.058.793-.175.27-.115.513-.285.734-.498zM53.967 45.127c-.79 0-1.516-.1-2.172-.3a4.582 4.582 0 0 1-1.71-.92 4.18 4.18 0 0 1-1.118-1.558c-.267-.628-.4-1.366-.4-2.22 0-.914.146-1.69.437-2.334a4.39 4.39 0 0 1 1.18-1.582 4.612 4.612 0 0 1 1.683-.88 7.148 7.148 0 0 1 2.018-.286 7.075 7.075 0 0 1 3.184.768v2.56h-.39a6.792 6.792 0 0 0-.438-.374 4.177 4.177 0 0 0-.568-.377c-.215-.12-.46-.22-.732-.303a3.163 3.163 0 0 0-.914-.123c-.764 0-1.354.263-1.77.794-.42.53-.628 1.24-.628 2.137 0 .958.224 1.674.67 2.143.447.47 1.04.707 1.78.707.374 0 .704-.045.988-.13.285-.08.53-.186.734-.303.2-.118.37-.24.514-.368.143-.126.266-.24.367-.342h.385v2.55c-.172.073-.37.157-.594.256a5.367 5.367 0 0 1-.688.235c-.29.08-.562.14-.816.182s-.59.065-1.003.065zM70.076 44.88V40.1c0-.47-.01-.87-.025-1.193-.017-.322-.067-.588-.153-.793a.87.87 0 0 0-.396-.447c-.18-.093-.433-.14-.757-.14-.23 0-.453.05-.676.145a4.8 4.8 0 0 0-.73.426v6.785h-2.983V40.1c0-.465-.01-.86-.027-1.19-.02-.325-.072-.59-.158-.796a.87.87 0 0 0-.397-.447c-.18-.093-.432-.14-.748-.14a1.66 1.66 0 0 0-.72.17 5.36 5.36 0 0 0-.685.4v6.786h-2.984v-9.56h2.984v1.054a7.836 7.836 0 0 1 1.38-.97 3.008 3.008 0 0 1 1.454-.353c.586 0 1.1.142 1.54.42.442.278.78.692 1.015 1.243.573-.533 1.114-.943 1.622-1.23.51-.287 1.02-.432 1.545-.432.443 0 .842.073 1.19.216a2.3 2.3 0 0 1 .896.64c.27.306.47.67.602 1.093.135.423.2.976.2 1.655v6.227h-2.99z"/></g></svg>